<svg width="74" height="98" viewBox="0 0 74 98" fill="none" xmlns="http://www.w3.org/2000/svg">
<path d="M56.6315 7.30936C51.7075 3.51679 44.8748 1.15851 37.2675 1.15851C29.9715 1.15851 23.3601 3.33751 18.4845 6.87494C8.87174 12.8258 2.57847 23.645 4.9713 37.2775C8.69885 58.3986 8.28391 53.751 9.93676 65.5493C11.5896 77.3477 11.5965 79.0716 16.9769 84.5604C22.3573 90.0493 22.7723 90.0769 24.847 92.1456C25.7474 93.1372 26.7644 94.017 27.876 94.7659C29.3837 96.076 33.0213 97 37.2675 97C41.742 97 45.5664 95.9726 46.8873 94.5521C47.8638 93.8381 48.7693 93.0322 49.5913 92.1456C51.666 90.0355 52.074 90.0355 57.4544 84.5604C62.8348 79.0853 62.8348 77.3821 64.4946 65.5493C66.1544 53.7165 65.7325 58.3711 69.4601 37.2775C71.8045 23.976 65.857 13.3499 56.6315 7.30936Z" stroke="#003F82" stroke-width="1.5" stroke-miterlimit="10"/>
<path d="M6.72051 47.8069C6.72051 47.8069 1.59599 45.6348 1.09115 51.696C0.655458 56.8815 1.78271 58.9019 4.45217 61.9911C7.12162 65.0803 8.88512 65.5217 9.74959 64.6528" stroke="#003F82" stroke-width="1.5" stroke-miterlimit="10"/>
<path d="M67.2752 47.8071C67.2752 47.8071 72.3997 45.6074 72.9115 51.6962C73.3402 56.8817 72.2199 58.9021 69.5504 61.9913C66.881 65.0805 65.1106 65.5219 64.2461 64.653" stroke="#003F82" stroke-width="1.5" stroke-miterlimit="10"/>
<path d="M24.0513 61.4188C24.0513 60.8209 23.5668 60.3362 22.969 60.3362C22.3713 60.3362 21.8867 60.8209 21.8867 61.4188V62.7083C21.8867 63.3062 22.3713 63.7909 22.969 63.7909C23.5668 63.7909 24.0513 63.3062 24.0513 62.7083V61.4188Z" fill="#003F82"/>
<path d="M53.0767 61.4188C53.0767 60.8209 52.5922 60.3362 51.9944 60.3362C51.3967 60.3362 50.9121 60.8209 50.9121 61.4188V62.7083C50.9121 63.3062 51.3967 63.7909 51.9944 63.7909C52.5922 63.7909 53.0767 63.3062 53.0767 62.7083V61.4188Z" fill="#003F82"/>
<path d="M13.9881 55.1647C13.1444 54.6889 13.6493 53.4132 14.9702 53.0477C17.4105 52.4031 19.899 51.9557 22.4114 51.71C24.897 51.4792 27.4035 51.7585 29.7767 52.5306C31.0561 53.0271 30.9662 54.7785 29.6522 54.9164C27.9189 55.0014 26.182 54.9784 24.4516 54.8475C22.6881 54.751 14.8319 55.6405 13.9881 55.1647Z" fill="#003F82"/>
<path d="M60.2063 55.1301C61.05 54.6543 60.5452 53.3786 59.2243 53.02C56.7786 52.3843 54.2855 51.9461 51.7692 51.7099C49.2928 51.4863 46.7968 51.7655 44.4316 52.5305C43.1522 53.0338 43.2559 54.7853 44.563 54.9163C46.2967 54.997 48.0338 54.9671 49.7636 54.8267C51.4925 54.7508 59.3557 55.6128 60.2063 55.1301Z" fill="#003F82"/>
<path d="M34.2871 62.0601C32.7103 65.9492 30.1377 71.0243 30.1377 74.1549C30.1377 77.182 32.738 77.4027 34.9095 77.5061C37.9567 77.5031 40.9984 77.2494 44.0036 76.7476" stroke="#003F82" stroke-width="1.5" stroke-miterlimit="10" stroke-linecap="round"/>
<path d="M32.2812 85.3878C35.5239 85.824 38.8104 85.824 42.0531 85.3878" stroke="#003F82" stroke-width="1.5" stroke-miterlimit="10" stroke-linecap="round"/>
<path d="M57.4414 9.3642C50.7331 3.77878 44.841 1.59289 36.6113 2.02042C28.3817 2.44794 19.2806 5.04757 12.7868 13.6877C6.29295 22.3279 5.87109 39.1669 5.87109 39.1669L8.76877 39.5875C8.90816 38.6007 9.23187 37.6488 9.72313 36.781C11.5904 33.5608 14.1699 29.0442 15.3732 26.6445C22.7384 11.9569 27.9736 18.1354 27.9736 18.1354C29.6126 24.7482 30.9681 32.6919 36.5975 32.6919C42.2269 32.6919 43.61 24.7482 45.2352 18.1354C45.2352 18.1354 50.4773 11.9293 57.8425 26.6445C59.0458 29.051 62.9324 33.5401 64.7582 36.7948C65.2219 37.5644 65.5538 38.4057 65.7402 39.2841L69.1081 38.7393C69.1081 38.7393 65.1385 15.846 57.4414 9.3642ZM36.8257 10.2261C31.6873 10.2261 27.5172 8.68154 27.5172 6.77836C27.5172 4.87518 31.6666 3.33057 36.8257 3.33057C41.9848 3.33057 46.1411 4.87518 46.1411 6.77836C46.1411 8.68154 41.971 10.2261 36.8257 10.2261Z" fill="#DAE5EA"/>
<path d="M70.4012 46.945C70.8369 44.5661 70.5188 41.5665 71.1619 37.9256C73.6239 23.9552 67.379 12.8051 57.6971 6.46115C52.5311 2.47551 45.3249 0 37.3857 0C29.73 0 22.7867 2.28933 17.6691 5.99915C7.57218 12.2534 0.953873 23.6104 3.4781 37.9256C4.16967 41.9113 3.68557 44.8764 4.16967 47.3795L6.84604 47.4208L8.07011 54.3164C8.07011 54.3164 12.8212 51.6064 9.70913 43.8007C9.25789 42.6726 9.06949 41.4571 9.15814 40.2459C9.24679 39.0347 9.61018 37.8593 10.2209 36.8086C12.0812 33.5883 14.6608 18.7077 15.8641 16.3011C23.2293 1.62046 50.9543 1.62046 58.3195 16.3011C59.5297 18.7077 62.1162 33.6021 63.9765 36.8223C64.5811 37.8635 64.9435 39.0267 65.0369 40.2262C65.1302 41.4257 64.9522 42.6307 64.5159 43.7524C61.4385 51.5995 66.5491 54.3164 66.5491 54.3164L68.0429 47.4208L70.4012 46.945Z" fill="#003F82"/>
</svg>
