<svg width="70" height="70" viewBox="0 0 70 70" fill="none" xmlns="http://www.w3.org/2000/svg">
<circle cx="35" cy="35" r="35" fill="white"/>
<path d="M13.125 35.564H22.4063C23.0701 35.5472 23.7295 35.6783 24.3375 35.948C24.9455 36.2177 25.4873 36.6193 25.9244 37.1243C26.803 38.1562 27.1503 39.5576 26.9215 41.0457C26.6831 42.4925 26.5283 43.9521 26.4577 45.417V45.4831C26.0491 49.9617 28.6499 54.0338 32.501 54.9584C33.1206 55.0929 33.7532 55.1559 34.3868 55.1463C38.3789 55.0059 41.7214 51.4952 42.1668 46.9794C42.3128 45.5265 42.1383 44.059 41.656 42.6824L41.5477 42.4264C41.3434 41.9393 40.945 41.0354 40.5732 40.0096C40.4082 39.5748 40.3527 39.1055 40.4115 38.6437C40.4703 38.1819 40.6417 37.7421 40.9103 37.3637C41.6907 36.2347 43.2332 35.5619 45.0352 35.5619H55.7266" stroke="#003F82" stroke-width="1.5" stroke-linecap="round"/>
<path d="M43.6825 15.0425C43.5601 14.9376 43.2932 15.0336 43.0927 15.2582C33.4259 25.8752 29.7582 40.3527 29.5621 46.0528C29.2893 48.8008 30.854 51.2431 33.1295 51.7838C33.4872 51.8595 33.8522 51.8957 34.2178 51.8917C36.5538 51.8104 38.5682 49.7242 38.841 46.9776C38.9328 46.0896 38.826 45.1923 38.5284 44.3507C38.4753 44.203 38.4163 44.0552 38.3514 43.9164C38.2423 43.68 38.0432 43.2707 37.9356 42.987C33.4981 31.2428 41.8318 18.2308 43.5852 15.6778C43.7563 15.4281 43.8035 15.1459 43.6825 15.0425Z" stroke="#FBAC2B" stroke-width="1.5" stroke-linecap="round"/>
</svg>
