<svg width="70" height="70" viewBox="0 0 70 70" fill="none" xmlns="http://www.w3.org/2000/svg">
<circle cx="35" cy="35" r="35" fill="white"/>
<path d="M41.3299 41.33C38.0821 44.5779 32.2377 44.3385 29.2607 43.9594C28.1199 43.8141 27.2449 42.9391 27.0996 41.7983C26.7205 38.8213 26.4811 32.9769 29.7289 29.7291C32.9768 26.4813 38.8211 26.7206 41.7982 27.0998C42.9389 27.245 43.8139 28.12 43.9592 29.2608C44.3384 32.2379 44.5777 38.0822 41.3299 41.33Z" stroke="#003F82" stroke-width="1.5"/>
<path d="M56.7553 25.8197C53.5074 29.0675 47.6631 28.8282 44.686 28.449C43.5452 28.3038 42.6703 27.4288 42.525 26.288C42.1458 23.3109 41.9065 17.4666 45.1543 14.2188" stroke="#003F82" stroke-width="1.5" stroke-linecap="round" stroke-linejoin="round"/>
<path d="M14.2184 45.1546C17.4662 41.9068 23.3106 42.1462 26.2876 42.5253C27.4284 42.6706 28.3034 43.5456 28.4487 44.6864C28.8278 47.6634 29.0672 53.5078 25.8193 56.7556" stroke="#003F82" stroke-width="1.5" stroke-linecap="round"/>
<line x1="36.548" y1="30.0735" x2="40.9011" y2="34.4266" stroke="#FBAC2B" stroke-width="1.5" stroke-linecap="round"/>
<line x1="45.0548" y1="21.6506" x2="49.4079" y2="26.0038" stroke="#FBAC2B" stroke-width="1.5" stroke-linecap="round"/>
<line x1="31.9493" y1="31.6626" x2="39.396" y2="39.1093" stroke="#FBAC2B" stroke-width="1.5" stroke-linecap="round"/>
<line x1="30.6017" y1="36.1039" x2="34.9548" y2="40.457" stroke="#FBAC2B" stroke-width="1.5" stroke-linecap="round"/>
<line x1="21.0792" y1="45.6259" x2="25.4323" y2="49.979" stroke="#FBAC2B" stroke-width="1.5" stroke-linecap="round"/>
</svg>
