<svg width="74" height="98" viewBox="0 0 74 98" fill="none" xmlns="http://www.w3.org/2000/svg">
<path d="M56.6282 7.3093C51.7046 3.51673 44.8724 1.15845 37.2657 1.15845C29.9772 1.15845 23.3663 3.33745 18.4911 6.87488C8.87211 12.8258 2.58625 23.6449 4.97198 37.2775C8.69924 58.3986 8.28434 53.751 9.94397 65.5493C11.6036 77.3476 11.5967 79.0715 16.9836 84.5604C22.3705 90.0493 22.7785 90.0769 24.8461 92.1455C25.748 93.1356 26.7648 94.0152 27.875 94.7658C29.3894 96.076 33.0198 97 37.2657 97C41.7468 97 45.5639 95.9726 46.8916 94.5521C47.8674 93.8398 48.7707 93.0338 49.5885 92.1455C51.6631 90.0355 52.0711 90.0355 57.458 84.5604C62.8449 79.0853 62.838 77.3821 64.4907 65.5493C66.1434 53.7165 65.7354 58.371 69.4627 37.2775C71.8 23.9759 65.853 13.3498 56.6282 7.3093Z" stroke="#003F82" stroke-width="1.5" stroke-miterlimit="10"/>
<path d="M6.72183 47.8071C6.72183 47.8071 1.60463 45.6074 1.0929 51.6962C0.65725 56.8816 1.74983 58.9021 4.45366 61.9913C7.15748 65.0805 8.8932 65.5218 9.75759 64.653" stroke="#003F82" stroke-width="1.5" stroke-miterlimit="10"/>
<path d="M67.2779 47.8071C67.2779 47.8071 72.4021 45.6074 72.9069 51.6962C73.3425 56.8816 72.2499 58.9021 69.5461 61.9913C66.8423 65.0805 65.1135 65.5218 64.2422 64.653" stroke="#003F82" stroke-width="1.5" stroke-miterlimit="10"/>
<path d="M24.0521 61.4192C24.0521 60.8212 23.5676 60.3365 22.9699 60.3365C22.3722 60.3365 21.8877 60.8212 21.8877 61.4192V62.7086C21.8877 63.3065 22.3722 63.7912 22.9699 63.7912C23.5676 63.7912 24.0521 63.3065 24.0521 62.7086V61.4192Z" fill="#003F82"/>
<path d="M53.0736 61.4192C53.0736 60.8212 52.5891 60.3365 51.9914 60.3365C51.3937 60.3365 50.9092 60.8212 50.9092 61.4192V62.7086C50.9092 63.3065 51.3937 63.7912 51.9914 63.7912C52.5891 63.7912 53.0736 63.3065 53.0736 62.7086V61.4192Z" fill="#003F82"/>
<path d="M13.9968 55.1648C13.1531 54.689 13.651 53.4133 14.9718 53.0478C17.4143 52.4033 19.9049 51.9559 22.4194 51.7101C24.8933 51.484 27.3874 51.7632 29.7495 52.5307C31.0219 53.0271 30.932 54.7786 29.625 54.9165C27.8919 55.0015 26.1551 54.9785 24.4248 54.8476C22.696 54.751 14.8404 55.6406 13.9968 55.1648Z" fill="#003F82"/>
<path d="M60.1966 55.1301C61.0333 54.6543 60.5285 53.3786 59.2077 53.02C56.7646 52.3842 54.274 51.946 51.7601 51.7099C49.2863 51.4882 46.793 51.7673 44.43 52.5304C43.1577 53.0338 43.2545 54.7853 44.5684 54.9163C46.3019 54.997 48.0388 54.9671 49.7685 54.8267C51.4973 54.7508 59.353 55.6128 60.1966 55.1301Z" fill="#003F82"/>
<path d="M34.2936 62.0601C32.717 65.9492 30.1445 71.0243 30.1445 74.1549C30.1445 77.182 32.7446 77.4027 34.9091 77.5061C37.9583 77.5032 41.002 77.2495 44.0094 76.7476" stroke="#003F82" stroke-width="1.5" stroke-miterlimit="10" stroke-linecap="round"/>
<path d="M32.2803 85.3878C35.5227 85.8239 38.8089 85.8239 42.0514 85.3878" stroke="#003F82" stroke-width="1.5" stroke-miterlimit="10" stroke-linecap="round"/>
<path d="M12.1367 28.8717C12.1367 28.8717 25.7872 16.0666 37.0313 22.8657C41.3671 21.7831 53.3994 19.2179 60.5912 27.8995C60.4252 21.0039 54.4505 12.4534 37.294 12.4534C20.1375 12.4534 14.5224 19.4317 12.1367 28.8717Z" fill="#DAE5EA"/>
<path d="M70.4024 46.9451C70.8381 44.5661 70.52 41.5665 71.1631 37.9257C73.6249 23.9552 67.3805 12.8051 57.6923 6.46115C52.5267 2.47551 45.3281 0 37.3618 0C29.7067 0 22.7639 2.28933 17.6467 5.99915C7.55058 12.2534 0.92587 23.6104 3.45682 37.9257C4.14833 41.9113 3.66427 44.8764 4.14833 47.3795L6.81759 47.4209L8.04156 54.3164C8.04156 54.3164 12.7923 51.6065 9.68045 43.8007C9.23126 42.6722 9.04395 41.457 9.13257 40.2461C9.22119 39.0352 9.58343 37.86 10.1922 36.8086C12.0593 33.5883 14.6386 29.0717 15.8419 26.6721C23.2065 11.9845 28.4413 18.1629 28.4413 18.1629C30.0871 24.7827 31.4355 32.7195 37.0645 32.7195C42.6934 32.7195 44.0488 24.7827 45.6877 18.1629C45.6877 18.1629 50.9293 11.9569 58.294 26.6721C59.4972 29.0786 62.0835 33.5676 63.9506 36.8224C64.554 37.864 64.9151 39.0275 65.0073 40.227C65.0995 41.4265 64.9203 42.6312 64.483 43.7524C61.392 51.572 66.4953 54.2888 66.4953 54.2888L67.989 47.3933L70.4024 46.9451Z" fill="#003F82"/>
</svg>
