<svg width="74" height="98" viewBox="0 0 74 98" fill="none" xmlns="http://www.w3.org/2000/svg">
<path d="M56.5986 7.31352C51.6842 3.51541 44.8482 1.15796 37.245 1.15796C29.9529 1.15796 23.3451 3.33619 18.4721 6.87236C8.8645 12.828 2.5746 23.6364 4.96614 37.2641C8.68478 58.3778 8.27697 53.7318 9.92893 65.5604C11.5809 77.389 11.5878 79.0709 16.9653 84.5579C22.3428 90.0448 22.7575 90.0724 24.8242 92.1403C25.7255 93.1322 26.7418 94.0138 27.8517 94.7666C29.3654 96.0763 33.0011 97 37.245 97C41.7171 97 45.5394 95.9729 46.8596 94.546C47.8349 93.834 48.7378 93.0283 49.5553 92.1403C51.6289 90.031 52.0436 90.031 57.4211 84.5579C62.7986 79.0847 62.7986 77.3821 64.4575 65.5604C66.1164 53.7387 65.6947 58.3778 69.4203 37.2641C71.7634 23.9673 65.8191 13.3519 56.5986 7.31352Z" stroke="#003F82" stroke-width="1.5" stroke-miterlimit="10"/>
<path d="M6.72224 47.7901C6.72224 47.7901 1.61427 45.5912 1.08896 51.6502C0.660418 56.8338 1.78017 58.8535 4.44819 61.9485C7.11621 65.0436 8.88567 65.4709 9.74966 64.6093" stroke="#003F82" stroke-width="1.5" stroke-miterlimit="10"/>
<path d="M67.2774 47.7898C67.2774 47.7898 72.3992 45.5909 72.9107 51.6776C73.3392 56.8612 72.2195 58.8809 69.5446 61.9759C66.8696 65.0709 65.114 65.4983 64.25 64.6366" stroke="#003F82" stroke-width="1.5" stroke-miterlimit="10"/>
<path d="M24.0375 61.397C24.0375 60.7993 23.5532 60.3148 22.9557 60.3148C22.3583 60.3148 21.874 60.7993 21.874 61.397V62.6861C21.874 63.2837 22.3583 63.7683 22.9557 63.7683C23.5532 63.7683 24.0375 63.2837 24.0375 62.6861V61.397Z" fill="#003F82"/>
<path d="M53.0463 61.397C53.0463 60.7993 52.5619 60.3148 51.9645 60.3148C51.3671 60.3148 50.8828 60.7993 50.8828 61.397V62.6861C50.8828 63.2837 51.3671 63.7683 51.9645 63.7683C52.5619 63.7683 53.0463 63.2837 53.0463 62.6861V61.397Z" fill="#003F82"/>
<path d="M13.986 55.145C13.1427 54.6694 13.6473 53.3941 14.9675 53.0357C17.405 52.3759 19.8923 51.9148 22.4047 51.6571C24.877 51.4325 27.3692 51.7092 29.7314 52.4704C31.0102 52.9668 30.9134 54.7245 29.607 54.8555C27.8747 54.9404 26.1387 54.9174 24.4092 54.7865C22.6812 54.7314 14.8292 55.6206 13.986 55.145Z" fill="#003F82"/>
<path d="M60.166 55.0967C61.0092 54.6211 60.5046 53.3528 59.1775 53.0288C56.7359 52.3901 54.2463 51.9498 51.7333 51.7122C49.2593 51.4979 46.7672 51.7839 44.4067 52.5532C43.1349 53.0564 43.2385 54.8141 44.5449 54.9382C46.2776 55.0188 48.0138 54.9889 49.7427 54.8486C51.4707 54.7314 59.3227 55.593 60.166 55.0967Z" fill="#003F82"/>
<path d="M34.2732 62.0449C32.6972 65.9258 30.126 71.006 30.126 74.1355C30.126 77.1547 32.7249 77.3752 34.8883 77.4786C37.9363 77.4795 40.979 77.2259 43.9845 76.7204" stroke="#003F82" stroke-width="1.5" stroke-miterlimit="10" stroke-linecap="round"/>
<path d="M32.2686 85.3575C35.5072 85.7928 38.7896 85.7928 42.0283 85.3575" stroke="#003F82" stroke-width="1.5" stroke-miterlimit="10" stroke-linecap="round"/>
<path d="M37.0311 9.36088C31.8125 9.36088 27.4234 6.98275 26.1516 3.74988C25.901 4.36749 25.7719 5.02746 25.7715 5.69374C25.7715 9.86408 30.8103 13.2762 37.0311 13.2762C43.2518 13.2762 48.2838 9.89165 48.2838 5.69374C48.2822 5.02823 48.1556 4.3689 47.9105 3.74988C46.6318 6.98275 42.2427 9.36088 37.0311 9.36088Z" fill="#DAE5EA"/>
<path d="M57.6699 6.45886C52.4998 2.47463 45.3044 0 37.3418 0C29.6903 0 22.7506 2.28852 17.6358 5.99702C7.5443 12.2491 0.929549 23.6021 3.45242 37.9122C4.14362 41.9033 3.65978 44.8673 4.14362 47.3627L6.81163 47.404L8.04196 54.2971C8.04196 54.2971 12.7905 51.595 9.67319 43.7851C8.76773 41.5035 9.86673 35.5134 11.0556 33.1421C18.4168 18.4598 25.3426 32.7079 37.0377 32.7079C48.7327 32.7079 53.9236 18.0255 61.7134 31.8462C63.0336 34.1899 65.3284 41.4966 64.4437 43.7369C61.3678 51.5812 66.4758 54.2971 66.4758 54.2971L67.9688 47.404L70.3741 46.9284C70.8096 44.5503 70.4916 41.5518 71.1345 37.9122C73.5882 23.9467 67.3467 12.8005 57.6699 6.45886ZM37.245 12.3594C27.9346 12.3594 27.9346 7.78923 27.9346 5.87984C27.9346 3.97044 32.0818 2.43327 37.245 2.43327C42.4083 2.43327 46.5555 3.97733 46.5555 5.87984C46.5555 7.78234 46.5416 12.3594 37.245 12.3594Z" fill="#003F82"/>
</svg>
