<svg width="74" height="70" viewBox="0 0 74 70" fill="none" xmlns="http://www.w3.org/2000/svg">
<circle cx="39" cy="35" r="35" fill="#F2F4FC"/>
<path d="M47.0469 27V33.0929" stroke="#003F82" stroke-width="1.5" stroke-linecap="round"/>
<path d="M50.0928 30.0464L43.9999 30.0464" stroke="#003F82" stroke-width="1.5" stroke-linecap="round"/>
<path d="M16.0547 59.7041V63H1.46484V60.1875L8.36426 52.79C9.05762 52.0186 9.60449 51.3398 10.0049 50.7539C10.4053 50.1582 10.6934 49.626 10.8691 49.1572C11.0547 48.6787 11.1475 48.2246 11.1475 47.7949C11.1475 47.1504 11.04 46.5986 10.8252 46.1396C10.6104 45.6709 10.293 45.3096 9.87305 45.0557C9.46289 44.8018 8.95508 44.6748 8.34961 44.6748C7.70508 44.6748 7.14844 44.8311 6.67969 45.1436C6.2207 45.4561 5.86914 45.8906 5.625 46.4473C5.39062 47.0039 5.27344 47.6338 5.27344 48.3369H1.04004C1.04004 47.0674 1.34277 45.9053 1.94824 44.8506C2.55371 43.7861 3.4082 42.9414 4.51172 42.3164C5.61523 41.6816 6.92383 41.3643 8.4375 41.3643C9.93164 41.3643 11.1914 41.6084 12.2168 42.0967C13.252 42.5752 14.0332 43.2686 14.5605 44.1768C15.0977 45.0752 15.3662 46.1494 15.3662 47.3994C15.3662 48.1025 15.2539 48.791 15.0293 49.4648C14.8047 50.1289 14.4824 50.793 14.0625 51.457C13.6523 52.1113 13.1543 52.7754 12.5684 53.4492C11.9824 54.123 11.333 54.8213 10.6201 55.5439L6.91406 59.7041H16.0547Z" fill="#003F82"/>
<rect x="54" y="23" width="20" height="32" rx="3" transform="rotate(90 54 23)" stroke="#003F82" stroke-width="1.5"/>
<path d="M26 35L39 35" stroke="#003F82" stroke-width="1.5" stroke-linecap="round"/>
<path d="M26 39L33 39" stroke="#003F82" stroke-width="1.5" stroke-linecap="round"/>
</svg>
