<svg width="109" height="36" viewBox="0 0 109 36" fill="none" xmlns="http://www.w3.org/2000/svg">
<path fill-rule="evenodd" clip-rule="evenodd" d="M42.6413 18.8518C42.6413 15.6308 40.3043 13.4268 37.5923 13.4268C34.8793 13.4268 32.5423 15.6308 32.5423 18.8518C32.5423 22.0398 34.8793 24.2758 37.5923 24.2758C40.3043 24.2758 42.6413 22.0368 42.6413 18.8518ZM46.5723 18.8524C46.5723 24.0054 42.5403 27.8044 37.5923 27.8044C32.6433 27.8044 28.6113 24.0054 28.6113 18.8524C28.6113 13.6624 32.6433 9.90039 37.5923 9.90039C42.5403 9.90039 46.5723 13.6624 46.5723 18.8524Z" fill="#CA5040"/>
<path fill-rule="evenodd" clip-rule="evenodd" d="M62.0134 18.8518C62.0134 15.6308 59.6764 13.4268 56.9644 13.4268C54.2514 13.4268 51.9144 15.6308 51.9144 18.8518C51.9144 22.0398 54.2514 24.2758 56.9644 24.2758C59.6764 24.2758 62.0134 22.0368 62.0134 18.8518ZM65.9444 18.8524C65.9444 24.0054 61.9124 27.8044 56.9644 27.8044C52.0154 27.8044 47.9844 24.0054 47.9844 18.8524C47.9844 13.6654 52.0154 9.90039 56.9644 9.90039C61.9124 9.90039 65.9444 13.6624 65.9444 18.8524Z" fill="#E4B142"/>
<path fill-rule="evenodd" clip-rule="evenodd" d="M81.0566 18.8847C81.0566 15.7327 78.9536 13.4277 76.2776 13.4277C73.5656 13.4277 71.2936 15.7327 71.2936 18.8847C71.2936 22.0047 73.5656 24.2767 76.2776 24.2767C78.9536 24.2767 81.0566 22.0047 81.0566 18.8847ZM84.5116 10.4414V26.5124C84.5116 33.1234 80.6126 35.8234 76.0036 35.8234C71.6646 35.8234 69.0536 32.9214 68.0686 30.5484L71.4916 29.1234C72.1006 30.5804 73.5936 32.3004 75.9996 32.3004C78.9496 32.3004 80.7776 30.4804 80.7776 27.0534V25.7654H80.6406C79.7606 26.8514 78.0656 27.7994 75.9266 27.7994C71.4506 27.7994 67.3496 23.9014 67.3496 18.8844C67.3496 13.8304 71.4506 9.90039 75.9266 9.90039C78.0616 9.90039 79.7566 10.8484 80.6406 11.9024H80.7776V10.4454H84.5116V10.4414Z" fill="#5380DF"/>
<path fill-rule="evenodd" clip-rule="evenodd" d="M86.832 27.2545H90.666V1.02051H86.832V27.2545Z" fill="#5A985C"/>
<path fill-rule="evenodd" clip-rule="evenodd" d="M96.2154 18.5774L104.215 15.2554C103.775 14.1374 102.451 13.3584 100.893 13.3584C98.8954 13.3584 96.1144 15.1224 96.2154 18.5774ZM105.607 21.7985L108.658 23.8325C107.673 25.2895 105.3 27.7995 101.2 27.7995C96.1144 27.7995 92.3174 23.8685 92.3174 18.8485C92.3174 13.5235 96.1474 9.89551 100.76 9.89551C105.405 9.89551 107.677 13.5935 108.42 15.5905L108.828 16.6075L96.8614 21.5635C97.7774 23.3595 99.2024 24.2755 101.2 24.2755C103.201 24.2755 104.59 23.2915 105.607 21.7985Z" fill="#CA5040"/>
<path fill-rule="evenodd" clip-rule="evenodd" d="M14.098 16.523V12.725H26.896C27.021 13.387 27.086 14.17 27.086 15.017C27.086 17.867 26.307 21.39 23.796 23.901C21.354 26.444 18.235 27.799 14.102 27.799C6.441 27.799 0 21.56 0 13.9C0 6.239 6.441 0 14.102 0C18.34 0 21.359 1.663 23.627 3.83L20.947 6.509C19.321 4.984 17.117 3.797 14.098 3.797C8.504 3.797 4.129 8.305 4.129 13.9C4.129 19.494 8.504 24.002 14.098 24.002C17.726 24.002 19.793 22.544 21.117 21.221C22.19 20.147 22.896 18.614 23.175 16.519L14.098 16.523Z" fill="#5380DF"/>
</svg>
