<svg width="225" height="49" viewBox="0 0 225 49" fill="none" xmlns="http://www.w3.org/2000/svg">
<g id="MedExpress Logo White">
<path id="Fill 4" fill-rule="evenodd" clip-rule="evenodd" d="M24.7021 44.4694C13.6604 44.4694 4.70868 35.5294 4.70868 24.501C4.70868 13.4726 13.6604 4.53089 24.7021 4.53089C35.7421 4.53089 44.6938 13.4726 44.6938 24.501C44.6938 35.5294 35.7421 44.4694 24.7021 44.4694ZM24.5291 0C10.9818 0 0 10.9702 0 24.5008C0 38.0315 10.9818 49 24.5291 49C38.0747 49 49.0565 38.0315 49.0565 24.5008C49.0565 10.9702 38.0747 0 24.5291 0Z" fill="white"/>
<path id="Fill 6" fill-rule="evenodd" clip-rule="evenodd" d="M38.89 20.2504V28.7466H28.7777V38.8621H20.2816V28.7466H10.166V20.2504H20.2816V10.1382H28.7777V20.2504H38.89Z" fill="white"/>
<path id="Fill 8" fill-rule="evenodd" clip-rule="evenodd" d="M57.5957 33.0098V13.8494C57.5957 13.2276 57.8135 12.6989 58.2491 12.2633C58.6847 11.8277 59.2151 11.5899 59.8386 11.5483H64.1349L68.3697 27.9088L72.6061 11.5483H79.1453V33.0098H75.0336V15.7166L70.6758 33.0098H66.1284L61.7058 15.7166V33.0098H57.5957Z" fill="white"/>
<path id="Fill 10" fill-rule="evenodd" clip-rule="evenodd" d="M85.0485 23.0559H91.3998C91.3167 21.9369 91.0274 21.1073 90.5286 20.5669C89.9883 19.9866 89.2218 19.6957 88.2242 19.6957C87.3097 19.6957 86.5632 19.9866 85.9829 20.5669C85.3993 21.1505 85.0884 21.9785 85.0485 23.0559ZM92.5222 27.9077H95.6364C95.1775 29.6502 94.3079 30.977 93.0194 31.8898C91.7325 32.8441 90.1131 33.3197 88.1628 33.3197C85.7952 33.3197 83.948 32.5532 82.6195 31.0185C81.2894 29.5271 80.626 27.3906 80.626 24.6107C80.626 21.9571 81.2694 19.8838 82.5563 18.3907C83.8848 16.8561 85.732 16.0896 88.0996 16.0896C90.5902 16.0896 92.5222 16.8361 93.8923 18.3275C95.2207 19.8622 95.8841 21.9987 95.8841 24.7354V25.1727V25.4204C95.8841 25.6282 95.8625 25.7729 95.8209 25.856H85.0486C85.0885 27.1412 85.3994 28.0939 85.983 28.7158C86.5217 29.3808 87.3314 29.7117 88.4105 29.7117C89.1171 29.7117 89.719 29.5687 90.2178 29.2761C90.3425 29.2362 90.4556 29.163 90.5603 29.0583C90.6634 28.9569 90.7781 28.8405 90.9028 28.7158C90.9427 28.5927 91.099 28.4265 91.37 28.2203C91.6394 28.0125 92.0235 27.9077 92.5222 27.9077Z" fill="white"/>
<path id="Fill 12" fill-rule="evenodd" clip-rule="evenodd" d="M101.229 24.612C101.229 26.2713 101.539 27.535 102.163 28.4079C102.786 29.2758 103.678 29.713 104.84 29.713C105.962 29.713 106.835 29.2758 107.457 28.4079C108.037 27.535 108.33 26.2713 108.33 24.612C108.33 23.119 108.017 21.9368 107.394 21.0656C106.73 20.2359 105.837 19.8219 104.717 19.8219C103.638 19.8219 102.786 20.2575 102.163 21.1288C101.539 21.9584 101.229 23.119 101.229 24.612ZM108.33 11.5483H110.447C111.029 11.5483 111.526 11.7645 111.941 12.2018C112.355 12.6357 112.563 13.1245 112.563 13.6632V25.7939C112.563 28.7368 111.714 30.7287 110.009 31.7662C108.308 32.802 106.46 33.3208 104.468 33.3208C103.387 33.3208 102.33 33.1429 101.292 32.792C100.253 32.4396 99.4216 31.8693 98.8014 31.0812C97.5944 29.5465 96.9941 27.4533 96.9941 24.798C96.9941 22.186 97.5944 20.0927 98.8014 18.5148C100.047 16.8988 101.645 16.089 103.595 16.089C104.632 16.089 105.547 16.2985 106.335 16.7109C107.166 17.2097 107.831 17.8531 108.33 18.6395V11.5483Z" fill="white"/>
<path id="Fill 14" fill-rule="evenodd" clip-rule="evenodd" d="M119.743 23.5539H125.847C126.469 23.5539 126.999 23.3361 127.435 22.9004C127.87 22.4648 128.09 21.9361 128.09 21.3143V19.8827H119.743V15.2805H130.953V11.6094H117.625C117.003 11.6094 116.474 11.8288 116.037 12.2628C115.602 12.6984 115.384 13.2288 115.384 13.849V33.0094H130.953V29.0273H119.743V23.5539Z" fill="white"/>
<path id="Fill 16" fill-rule="evenodd" clip-rule="evenodd" d="M160.607 28.3445C159.983 29.2141 159.132 29.6513 158.054 29.6513C156.891 29.6513 155.999 29.2141 155.376 28.3445C154.752 27.5564 154.44 26.3742 154.44 24.7981C154.44 23.0988 154.731 21.8535 155.313 21.0671C155.936 20.1958 156.807 19.7602 157.93 19.7602C159.09 19.7602 159.983 20.1958 160.607 21.0671C161.23 21.9366 161.541 23.1803 161.541 24.7981C161.541 26.2911 161.23 27.4733 160.607 28.3445ZM163.969 18.3902C163.347 17.6437 162.507 17.0751 161.448 16.6794C160.389 16.287 159.34 16.0891 158.302 16.0891C156.309 16.0891 154.46 16.6178 152.759 17.6753C151.057 18.7327 150.207 20.7146 150.207 23.6159V37.4542H154.44V30.8335C154.941 31.7047 155.604 32.3465 156.434 32.7622C157.222 33.1329 158.136 33.3208 159.175 33.3208C161.126 33.3208 162.725 32.5344 163.969 30.9565C165.216 29.3404 165.839 27.2255 165.839 24.6119C165.839 22.083 165.216 20.008 163.969 18.3902Z" fill="white"/>
<path id="Fill 18" fill-rule="evenodd" clip-rule="evenodd" d="M167.384 33.01V24.9844C167.384 23.3667 167.622 22.0099 168.1 20.9109C168.576 19.8119 169.231 18.9307 170.062 18.2656C170.85 17.6438 171.775 17.1882 172.834 16.8973C173.891 16.608 174.982 16.4617 176.103 16.4617H176.414H176.726V20.8793H175.293C174.089 20.8793 173.196 21.1686 172.614 21.7506C172.033 22.3308 171.743 23.242 171.743 24.4873V33.01H167.384Z" fill="white"/>
<path id="Fill 20" fill-rule="evenodd" clip-rule="evenodd" d="M182.007 23.0559H188.36C188.277 21.9369 187.986 21.1073 187.487 20.5669C186.946 19.9866 186.18 19.6957 185.182 19.6957C184.27 19.6957 183.521 19.9866 182.941 20.5669C182.359 21.1505 182.047 21.9785 182.007 23.0559ZM189.48 27.9077H192.594C192.137 29.6502 191.264 30.977 189.977 31.8898C188.69 32.8441 187.071 33.3197 185.121 33.3197C182.755 33.3197 180.906 32.5532 179.578 31.0185C178.249 29.5271 177.584 27.3906 177.584 24.6107C177.584 21.9571 178.227 19.8838 179.514 18.3907C180.843 16.8561 182.692 16.0896 185.058 16.0896C187.55 16.0896 189.48 16.8361 190.849 18.3275C192.179 19.8622 192.842 21.9987 192.842 24.7354V25.1727V25.4204C192.842 25.6282 192.822 25.7729 192.781 25.856H182.007C182.047 27.1412 182.359 28.0939 182.941 28.7158C183.48 29.3808 184.289 29.7117 185.37 29.7117C186.075 29.7117 186.679 29.5687 187.174 29.2761C187.301 29.2362 187.414 29.163 187.518 29.0583C187.621 28.9569 187.736 28.8405 187.861 28.7158C187.901 28.5927 188.057 28.4265 188.328 28.2203C188.596 28.0125 188.981 27.9077 189.48 27.9077Z" fill="white"/>
<path id="Fill 22" fill-rule="evenodd" clip-rule="evenodd" d="M193.952 27.5353H198.187C198.228 28.365 198.541 28.9884 199.121 29.4024C199.743 29.8165 200.573 30.0243 201.612 30.0243C202.36 30.0243 203.002 29.8796 203.544 29.587C204.043 29.2994 204.291 28.9037 204.291 28.4065C204.291 27.66 203.418 27.0997 201.675 26.7272C200.927 26.6025 200.367 26.4778 199.993 26.3531C197.793 25.8144 196.318 25.1727 195.572 24.4245C194.74 23.6779 194.325 22.6837 194.325 21.4383C194.325 19.8638 194.926 18.557 196.132 17.5211C197.377 16.5651 198.997 16.0896 200.988 16.0896C203.148 16.0896 204.872 16.5651 206.159 17.5211C207.361 18.557 208.007 19.9054 208.09 21.563H205.411C204.621 21.563 204.02 21.2106 203.606 20.5056C203.439 20.341 203.273 20.1747 203.107 20.0085C202.61 19.636 201.923 19.4482 201.052 19.4482C200.222 19.4482 199.599 19.5729 199.185 19.8206C198.809 20.07 198.623 20.4441 198.623 20.9412C198.623 21.6063 199.702 22.1649 201.861 22.6205C202.111 22.7036 202.33 22.7668 202.515 22.8084C202.703 22.8499 202.879 22.8699 203.045 22.8699C205.162 23.4086 206.637 24.0321 207.466 24.7354C208.256 25.4819 208.65 26.4778 208.65 27.7232C208.65 29.5471 207.985 30.957 206.658 31.953C205.411 32.8658 203.544 33.3197 201.052 33.3197C198.686 33.3197 196.92 32.8441 195.756 31.8914C194.554 30.9354 193.952 29.5471 193.952 27.7232V27.5353Z" fill="white"/>
<path id="Fill 24" fill-rule="evenodd" clip-rule="evenodd" d="M209.759 27.5353H213.994C214.035 28.365 214.346 28.9884 214.928 29.4024C215.551 29.8165 216.381 30.0243 217.419 30.0243C218.167 30.0243 218.809 29.8796 219.351 29.587C219.849 29.2994 220.097 28.9037 220.097 28.4065C220.097 27.66 219.226 27.0997 217.482 26.7272C216.735 26.6025 216.173 26.4778 215.801 26.3531C213.6 25.8144 212.126 25.1727 211.378 24.4245C210.549 23.6779 210.133 22.6837 210.133 21.4383C210.133 19.8638 210.735 18.557 211.94 17.5211C213.186 16.5651 214.803 16.0896 216.797 16.0896C218.955 16.0896 220.679 16.5651 221.966 17.5211C223.168 18.557 223.815 19.9054 223.896 21.563H221.219C220.428 21.563 219.828 21.2106 219.412 20.5056C219.246 20.341 219.08 20.1747 218.913 20.0085C218.418 19.636 217.731 19.4482 216.86 19.4482C216.029 19.4482 215.405 19.5729 214.989 19.8206C214.617 20.07 214.431 20.4441 214.431 20.9412C214.431 21.6063 215.508 22.1649 217.668 22.6205C217.917 22.7036 218.137 22.7668 218.321 22.8084C218.509 22.8499 218.686 22.8699 218.853 22.8699C220.97 23.4086 222.443 24.0321 223.274 24.7354C224.063 25.4819 224.457 26.4778 224.457 27.7232C224.457 29.5471 223.792 30.957 222.465 31.953C221.219 32.8658 219.351 33.3197 216.86 33.3197C214.492 33.3197 212.728 32.8441 211.564 31.8914C210.361 30.9354 209.759 29.5471 209.759 27.7232V27.5353Z" fill="white"/>
<path id="Fill 26" fill-rule="evenodd" clip-rule="evenodd" d="M133.466 16.4427L138.57 24.4866L133.153 33.0093H138.198L141.25 27.7836L144.177 33.0093H149.16L143.68 24.5481L148.932 16.4576H144.087L141.126 21.4373L138.249 16.4427C138.249 16.4427 133.451 16.4277 133.466 16.4427Z" fill="white"/>
</g>
</svg>
