<svg width="18" height="23" viewBox="0 0 18 23" fill="none" xmlns="http://www.w3.org/2000/svg">
<path fill-rule="evenodd" clip-rule="evenodd" d="M13.3529 22.2078C9.15394 22.2078 2.46594 13.8073 0.538942 7.53799C-0.0750578 5.53816 -0.473058 2.91346 1.12094 1.76835C2.44594 0.816154 3.28094 0.391357 3.82694 0.391357C4.46094 0.391357 4.89494 1.10961 5.54694 3.23975C6.26694 5.59255 6.05794 5.74235 4.06094 7.17681L3.79194 7.37074L3.85494 7.69806C4.56494 11.315 7.20394 15.1823 10.2729 17.1031L10.5519 17.2775L10.8199 17.0846C11.8139 16.3715 12.4139 15.9405 12.9499 15.9405C13.4029 15.9405 13.9789 16.2463 14.9359 16.9974C16.2239 18.0091 17.0189 18.7582 17.0069 19.3676C16.9959 19.9248 16.3049 20.6656 14.7699 21.7687C14.3639 22.0601 13.8879 22.2078 13.3529 22.2078Z" fill="white"/>
</svg>
