<svg width="123" height="30" viewBox="0 0 123 30" fill="none" xmlns="http://www.w3.org/2000/svg">
<path fill-rule="evenodd" clip-rule="evenodd" d="M115.675 14.6595H117.519V11.3809H119.955V14.6595H122.157V16.4588H119.955V22.2926C119.955 22.5474 119.967 22.7612 119.988 22.9509C120.01 23.1321 120.064 23.2935 120.139 23.4195C120.215 23.5483 120.334 23.6445 120.495 23.7082C120.657 23.772 120.862 23.8031 121.143 23.8031C121.315 23.8031 121.487 23.8031 121.66 23.7932C121.833 23.7819 122.005 23.762 122.178 23.7182V25.5811C121.909 25.6123 121.639 25.6349 121.391 25.6661C121.131 25.6986 120.873 25.71 120.604 25.71C119.955 25.71 119.439 25.6463 119.051 25.5288C118.662 25.4113 118.349 25.2301 118.134 24.9965C117.908 24.7615 117.767 24.4741 117.681 24.123C117.605 23.772 117.552 23.3671 117.541 22.9197V16.48H115.696V14.6595H115.675ZM109.377 23.9742C109.916 23.9742 110.391 23.8567 110.791 23.6331C111.19 23.4094 111.514 23.1121 111.772 22.7497C112.03 22.3873 112.213 21.9725 112.342 21.5152C112.461 21.0579 112.526 20.5879 112.526 20.1094C112.526 19.6423 112.461 19.1822 112.342 18.715C112.225 18.2464 112.03 17.8415 111.772 17.4791C111.514 17.1181 111.19 16.8307 110.791 16.607C110.391 16.3834 109.916 16.2673 109.377 16.2673C108.838 16.2673 108.365 16.3834 107.966 16.607C107.566 16.8307 107.243 17.128 106.984 17.4791C106.725 17.8415 106.542 18.2464 106.413 18.715C106.294 19.1822 106.229 19.6423 106.229 20.1094C106.229 20.5879 106.294 21.0579 106.413 21.5152C106.53 21.9725 106.725 22.3873 106.984 22.7497C107.243 23.1121 107.566 23.4094 107.966 23.6331C108.365 23.8681 108.838 23.9742 109.377 23.9742ZM109.377 25.88C108.493 25.88 107.706 25.7299 107.016 25.4426C106.325 25.1552 105.743 24.7517 105.258 24.2505C104.784 23.7395 104.417 23.1321 104.17 22.4299C103.922 21.7278 103.791 20.9505 103.791 20.1096C103.791 19.28 103.922 18.5127 104.17 17.8105C104.417 17.1069 104.784 16.501 105.258 15.9885C105.733 15.4789 106.325 15.0853 107.016 14.7979C107.706 14.5105 108.493 14.3605 109.377 14.3605C110.262 14.3605 111.049 14.5105 111.739 14.7979C112.43 15.0853 113.012 15.4888 113.497 15.9885C113.971 16.501 114.338 17.1069 114.587 17.8105C114.835 18.5127 114.964 19.28 114.964 20.1096C114.964 20.9505 114.835 21.7278 114.587 22.4299C114.338 23.1321 113.971 23.7395 113.497 24.2505C113.022 24.7616 112.43 25.1552 111.739 25.4426C111.049 25.7299 110.262 25.88 109.377 25.88ZM99.468 25.581H101.906V10.4976H99.468V25.581ZM94.8521 25.581H97.2885V14.6591H94.8521V25.581ZM94.8521 12.7752H97.2885V10.4976H94.8521V12.7752ZM90.5502 20.1307C90.5502 19.6423 90.4857 19.1623 90.3552 18.6938C90.2261 18.2252 90.0325 17.8203 89.7744 17.4593C89.5149 17.0969 89.1908 16.8095 88.8136 16.5957C88.4265 16.3834 87.9833 16.2673 87.4872 16.2673C86.4633 16.2673 85.6861 16.6184 85.1698 17.3205C84.6521 18.0227 84.3926 18.9599 84.3926 20.1307C84.3926 20.6842 84.4571 21.1953 84.5977 21.6639C84.7382 22.131 84.9318 22.5359 85.2114 22.8771C85.481 23.2183 85.8051 23.483 86.1822 23.6755C86.5594 23.878 87.0025 23.9742 87.4986 23.9742C88.0593 23.9742 88.5225 23.8567 88.9111 23.6331C89.2983 23.4094 89.6124 23.1121 89.8605 22.761C90.1071 22.3986 90.2907 21.9937 90.3996 21.535C90.4957 21.0778 90.5502 20.6092 90.5502 20.1307ZM82.0305 14.6592H84.3378V16.1385H84.3823C84.7264 15.5 85.2011 15.0527 85.8163 14.7752C86.43 14.4992 87.0882 14.3605 87.811 14.3605C88.6843 14.3605 89.4386 14.5105 90.0853 14.8177C90.7335 15.1164 91.2727 15.5312 91.7043 16.0634C92.1345 16.5957 92.4471 17.2143 92.6637 17.9165C92.8788 18.6186 92.9863 19.3745 92.9863 20.1743C92.9863 20.9076 92.8902 21.6211 92.6952 22.302C92.5016 22.9942 92.2105 23.6001 91.8219 24.1324C91.4347 24.6646 90.9386 25.0794 90.3348 25.3993C89.7297 25.7178 89.0285 25.8792 88.2096 25.8792C87.854 25.8792 87.4984 25.8467 87.1427 25.783C86.7857 25.7178 86.4415 25.6117 86.1174 25.4744C85.7948 25.3356 85.4807 25.1544 85.2111 24.9322C84.9315 24.7085 84.7049 24.4523 84.5113 24.1649H84.4683V29.615H82.0305V14.6592ZM73.8237 14.6595H75.6693V11.3809H78.1056V14.6595H80.3054V16.4588H78.1056V22.2926C78.1056 22.5474 78.1171 22.7612 78.1386 22.9509C78.1587 23.1321 78.2132 23.2935 78.2892 23.4195C78.3638 23.5483 78.4828 23.6445 78.6448 23.7082C78.8069 23.772 79.0119 23.8031 79.2916 23.8031C79.4651 23.8031 79.6372 23.8031 79.8092 23.7932C79.9813 23.7819 80.1534 23.762 80.3269 23.7182V25.5811C80.0573 25.6123 79.7877 25.6349 79.5397 25.6661C79.2815 25.6986 79.022 25.71 78.7524 25.71C78.1056 25.71 77.588 25.6463 77.1994 25.5288C76.8107 25.4113 76.4996 25.2301 76.283 24.9965C76.0565 24.7615 75.9159 24.4741 75.8299 24.123C75.7553 23.772 75.7008 23.3671 75.6908 22.9197V16.48H73.8467V14.6595H73.8237ZM65.78 22.0783C65.8546 22.7804 66.1242 23.2702 66.5888 23.5576C67.0635 23.8336 67.6242 23.9837 68.2809 23.9837C68.5075 23.9837 68.7671 23.9625 69.0582 23.9313C69.3493 23.8988 69.6289 23.8251 69.877 23.7275C70.1365 23.6326 70.3416 23.4826 70.5137 23.2929C70.6757 23.1004 70.7503 22.8555 70.7402 22.5469C70.7288 22.2383 70.6112 21.9835 70.3947 21.7909C70.1796 21.5899 69.91 21.4399 69.5758 21.311C69.2417 21.195 68.8631 21.0888 68.4329 21.0024C68.0013 20.9189 67.5697 20.8227 67.128 20.7264C66.6749 20.6316 66.2318 20.5027 65.813 20.364C65.3914 20.2267 65.0143 20.0342 64.6787 19.7893C64.346 19.5557 64.0764 19.2471 63.8814 18.8748C63.6764 18.5025 63.5803 18.0439 63.5803 17.4904C63.5803 16.8944 63.7308 16.4046 64.022 15.9997C64.3131 15.5949 64.6902 15.2764 65.1319 15.0315C65.585 14.7866 66.0826 14.6167 66.6318 14.5105C67.1811 14.4143 67.7102 14.3605 68.2064 14.3605C68.7771 14.3605 69.3278 14.4242 69.8454 14.5417C70.3631 14.6592 70.8363 14.8503 71.2579 15.1277C71.6781 15.3939 72.0237 15.7449 72.3033 16.1696C72.5844 16.5957 72.7565 17.1181 72.8325 17.7239H70.2871C70.1681 17.1506 69.91 16.7557 69.4884 16.5646C69.0696 16.3621 68.5835 16.2673 68.0443 16.2673C67.8722 16.2673 67.6658 16.2772 67.4291 16.3083C67.1925 16.3395 66.9774 16.3947 66.7609 16.4683C66.5558 16.5433 66.3838 16.6594 66.2318 16.8095C66.0927 16.9581 66.0166 17.1506 66.0166 17.3955C66.0166 17.6928 66.1242 17.9278 66.3293 18.109C66.5343 18.2887 66.8039 18.4374 67.138 18.5662C67.4722 18.6837 67.8493 18.7899 68.2809 18.8748C68.7126 18.9597 69.1557 19.0546 69.6074 19.1508C70.0505 19.2471 70.4807 19.3745 70.9123 19.5132C71.344 19.6506 71.7211 19.8431 72.0567 20.088C72.3894 20.3329 72.6589 20.6316 72.864 20.9925C73.0691 21.3535 73.1766 21.8122 73.1766 22.3444C73.1766 22.9942 73.0261 23.5364 72.7235 23.995C72.4223 24.4409 72.0337 24.8146 71.5591 25.0907C71.0844 25.3667 70.5452 25.5805 69.9645 25.7093C69.3808 25.8367 68.8 25.899 68.2279 25.899C67.5267 25.899 66.8799 25.8254 66.2862 25.6654C65.694 25.5055 65.1763 25.2719 64.7447 24.9633C64.3131 24.6448 63.9675 24.2498 63.7208 23.7813C63.4727 23.3127 63.3422 22.7493 63.3207 22.0995H65.78V22.0783ZM61.6285 25.5813H59.2337V24.0594H59.1907C58.8881 24.6129 58.4464 25.049 57.8542 25.3788C57.2605 25.7101 56.6568 25.88 56.043 25.88C54.5861 25.88 53.5292 25.5289 52.8825 24.8154C52.2357 24.1019 51.9116 23.0259 51.9116 21.5904V14.6591H54.3494V21.354C54.3494 22.3124 54.5316 22.9948 54.9087 23.3884C55.2758 23.7819 55.805 23.9844 56.4732 23.9844C56.9909 23.9844 57.4111 23.9093 57.7566 23.7508C58.1022 23.5908 58.3819 23.3884 58.5869 23.1236C58.802 22.8674 58.954 22.5474 59.0501 22.185C59.1476 21.824 59.1907 21.429 59.1907 21.0029V14.669H61.6285V25.5813ZM43.943 14.6592H46.2288V16.7657H46.2732C46.3478 16.4684 46.4883 16.181 46.6934 15.905C46.8984 15.6289 47.1451 15.3614 47.4376 15.1377C47.7287 14.9041 48.0514 14.7229 48.407 14.5728C48.7627 14.4355 49.1298 14.3605 49.4969 14.3605C49.7765 14.3605 49.9816 14.3718 50.0891 14.3831C50.1967 14.393 50.3056 14.4143 50.4247 14.4242V16.7459C50.2512 16.7133 50.0791 16.6935 49.8955 16.6709C49.712 16.6496 49.5399 16.6383 49.3678 16.6383C48.9577 16.6383 48.5691 16.7247 48.202 16.8832C47.8363 17.0446 47.5237 17.2881 47.2541 17.5967C46.9845 17.9167 46.768 18.2989 46.6059 18.7675C46.4453 19.2361 46.3693 19.7684 46.3693 20.3757V25.5712H43.9329V14.6592H43.943ZM32.1023 10.4979H44.472V12.7757H39.6079V25.5814H36.9335V12.7757H32.0923V10.4979H32.1023Z" fill="#191919"/>
<path fill-rule="evenodd" clip-rule="evenodd" d="M29.2551 10.497H18.0828L14.6326 0L11.1709 10.497L0 10.4857L9.04713 16.9793L5.58544 27.465L14.6326 20.9828L23.6697 27.465L20.2195 16.9793L29.2551 10.497Z" fill="#00B07A"/>
<path fill-rule="evenodd" clip-rule="evenodd" d="M20.996 19.3538L20.2202 16.9785L14.6333 20.9816L20.996 19.3538Z" fill="#214F2C"/>
</svg>
