<svg width="143" height="57" viewBox="0 0 143 57" fill="none" xmlns="http://www.w3.org/2000/svg">
<path fill-rule="evenodd" clip-rule="evenodd" d="M0.828125 56.2812H27.4531V29.6562H0.828125V56.2812Z" fill="#00B07A"/>
<path fill-rule="evenodd" clip-rule="evenodd" d="M29.6719 56.2812H56.2969V29.6562H29.6719V56.2812Z" fill="#00B07A"/>
<path fill-rule="evenodd" clip-rule="evenodd" d="M58.5156 56.2812H85.1406V29.6562H58.5156V56.2812Z" fill="#00B07A"/>
<path fill-rule="evenodd" clip-rule="evenodd" d="M87.3594 56.2812H113.984V29.6562H87.3594V56.2812Z" fill="#00B07A"/>
<path fill-rule="evenodd" clip-rule="evenodd" d="M116.203 56.2812H142.828V29.6562H116.203V56.2812Z" fill="#00B07A"/>
<path fill-rule="evenodd" clip-rule="evenodd" d="M23.4593 40.8614H16.3313L14.1403 34.1494L11.9493 40.8614H4.82129L10.5903 45.0214L8.39929 51.7334L14.1683 47.5734L17.7183 45.0214L23.4593 40.8614ZM14.1403 47.6002L18.1893 46.5742L19.8813 51.7892L14.1403 47.6002Z" fill="white"/>
<path fill-rule="evenodd" clip-rule="evenodd" d="M52.303 40.8614H45.175L42.984 34.1494L40.793 40.8614H33.665L39.434 45.0214L37.243 51.7334L43.012 47.5734L46.562 45.0214L52.303 40.8614ZM42.984 47.6002L47.033 46.5742L48.725 51.7892L42.984 47.6002Z" fill="white"/>
<path fill-rule="evenodd" clip-rule="evenodd" d="M81.1468 40.8614H74.0188L71.8278 34.1494L69.6368 40.8614H62.5088L68.2778 45.0214L66.0868 51.7334L71.8558 47.5734L75.4058 45.0214L81.1468 40.8614ZM71.8278 47.6002L75.8768 46.5742L77.5688 51.7892L71.8278 47.6002Z" fill="white"/>
<path fill-rule="evenodd" clip-rule="evenodd" d="M109.991 40.8614H102.863L100.672 34.1494L98.4805 40.8614H91.3525L97.1215 45.0214L94.9305 51.7334L100.7 47.5734L104.25 45.0214L109.991 40.8614ZM100.672 47.6002L104.721 46.5742L106.413 51.7892L100.672 47.6002Z" fill="white"/>
<path fill-rule="evenodd" clip-rule="evenodd" d="M138.834 40.8614H131.706L129.515 34.1494L127.324 40.8614H120.196L125.965 45.0214L123.774 51.7334L129.543 47.5734L133.093 45.0214L138.834 40.8614ZM129.515 47.6002L133.564 46.5742L135.256 51.7892L129.515 47.6002Z" fill="white"/>
<path fill-rule="evenodd" clip-rule="evenodd" d="M109.893 10.3551H111.179V8.03906H112.878V10.3551H114.413V11.6261H112.878V15.7471C112.878 15.9271 112.886 16.0781 112.901 16.2121C112.916 16.3401 112.954 16.4541 113.006 16.5431C113.059 16.6341 113.142 16.7021 113.254 16.7471C113.367 16.7921 113.51 16.8141 113.706 16.8141C113.826 16.8141 113.946 16.8141 114.067 16.8071C114.187 16.7991 114.307 16.7851 114.428 16.7541V18.0701C114.24 18.0921 114.052 18.1081 113.879 18.1301C113.698 18.1531 113.518 18.1611 113.33 18.1611C112.878 18.1611 112.518 18.1161 112.247 18.0331C111.976 17.9501 111.758 17.8221 111.608 17.6571C111.45 17.4911 111.352 17.2881 111.292 17.0401C111.239 16.7921 111.202 16.5061 111.194 16.1901V11.6411H109.908V10.3551H109.893ZM105.501 16.9352C105.877 16.9352 106.208 16.8522 106.487 16.6942C106.765 16.5362 106.991 16.3262 107.171 16.0702C107.351 15.8142 107.479 15.5212 107.569 15.1982C107.652 14.8752 107.697 14.5432 107.697 14.2052C107.697 13.8752 107.652 13.5502 107.569 13.2202C107.487 12.8892 107.351 12.6032 107.171 12.3472C106.991 12.0922 106.765 11.8892 106.487 11.7312C106.208 11.5732 105.877 11.4912 105.501 11.4912C105.125 11.4912 104.795 11.5732 104.517 11.7312C104.238 11.8892 104.013 12.0992 103.832 12.3472C103.652 12.6032 103.524 12.8892 103.434 13.2202C103.351 13.5502 103.306 13.8752 103.306 14.2052C103.306 14.5432 103.351 14.8752 103.434 15.1982C103.516 15.5212 103.652 15.8142 103.832 16.0702C104.013 16.3262 104.238 16.5362 104.517 16.6942C104.795 16.8602 105.125 16.9352 105.501 16.9352ZM105.501 18.2815C104.885 18.2815 104.336 18.1755 103.855 17.9725C103.373 17.7695 102.967 17.4845 102.629 17.1305C102.298 16.7695 102.042 16.3405 101.87 15.8445C101.697 15.3485 101.606 14.7995 101.606 14.2055C101.606 13.6195 101.697 13.0775 101.87 12.5815C102.042 12.0845 102.298 11.6565 102.629 11.2945C102.96 10.9345 103.373 10.6565 103.855 10.4535C104.336 10.2505 104.885 10.1445 105.501 10.1445C106.118 10.1445 106.667 10.2505 107.148 10.4535C107.63 10.6565 108.036 10.9415 108.374 11.2945C108.705 11.6565 108.961 12.0845 109.134 12.5815C109.307 13.0775 109.397 13.6195 109.397 14.2055C109.397 14.7995 109.307 15.3485 109.134 15.8445C108.961 16.3405 108.705 16.7695 108.374 17.1305C108.043 17.4915 107.63 17.7695 107.148 17.9725C106.667 18.1755 106.118 18.2815 105.501 18.2815ZM98.5914 18.07H100.291V7.41504H98.5914V18.07ZM95.3724 18.0705H97.0714V10.3555H95.3724V18.0705ZM95.3724 9.02404H97.0714V7.41504H95.3724V9.02404ZM92.3724 14.2202C92.3724 13.8752 92.3274 13.5362 92.2364 13.2052C92.1464 12.8742 92.0114 12.5882 91.8314 12.3332C91.6504 12.0772 91.4244 11.8742 91.1614 11.7232C90.8914 11.5732 90.5824 11.4912 90.2364 11.4912C89.5224 11.4912 88.9804 11.7392 88.6204 12.2352C88.2594 12.7312 88.0784 13.3932 88.0784 14.2202C88.0784 14.6112 88.1234 14.9722 88.2214 15.3032C88.3194 15.6332 88.4544 15.9192 88.6494 16.1602C88.8374 16.4012 89.0634 16.5882 89.3264 16.7242C89.5894 16.8672 89.8984 16.9352 90.2444 16.9352C90.6354 16.9352 90.9584 16.8522 91.2294 16.6942C91.4994 16.5362 91.7184 16.3262 91.8914 16.0782C92.0634 15.8222 92.1914 15.5362 92.2674 15.2122C92.3344 14.8892 92.3724 14.5582 92.3724 14.2202ZM86.4314 10.3555H88.0404V11.4005H88.0714C88.3114 10.9495 88.6424 10.6335 89.0714 10.4375C89.4994 10.2425 89.9584 10.1445 90.4624 10.1445C91.0714 10.1445 91.5974 10.2505 92.0484 10.4675C92.5004 10.6785 92.8764 10.9715 93.1774 11.3475C93.4774 11.7235 93.6954 12.1605 93.8464 12.6565C93.9964 13.1525 94.0714 13.6865 94.0714 14.2515C94.0714 14.7695 94.0044 15.2735 93.8684 15.7545C93.7334 16.2435 93.5304 16.6715 93.2594 17.0475C92.9894 17.4235 92.6434 17.7165 92.2224 17.9425C91.8004 18.1675 91.3114 18.2815 90.7404 18.2815C90.4924 18.2815 90.2444 18.2585 89.9964 18.2135C89.7474 18.1675 89.5074 18.0925 89.2814 17.9955C89.0564 17.8975 88.8374 17.7695 88.6494 17.6125C88.4544 17.4545 88.2964 17.2735 88.1614 17.0705H88.1314V20.9205H86.4314V10.3555ZM80.7084 10.3551H81.9954V8.03906H83.6944V10.3551H85.2284V11.6261H83.6944V15.7471C83.6944 15.9271 83.7024 16.0781 83.7174 16.2121C83.7314 16.3401 83.7694 16.4541 83.8224 16.5431C83.8744 16.6341 83.9574 16.7021 84.0704 16.7471C84.1834 16.7921 84.3264 16.8141 84.5214 16.8141C84.6424 16.8141 84.7624 16.8141 84.8824 16.8071C85.0024 16.7991 85.1224 16.7851 85.2434 16.7541V18.0701C85.0554 18.0921 84.8674 18.1081 84.6944 18.1301C84.5144 18.1531 84.3334 18.1611 84.1454 18.1611C83.6944 18.1611 83.3334 18.1161 83.0624 18.0331C82.7914 17.9501 82.5744 17.8221 82.4234 17.6571C82.2654 17.4911 82.1674 17.2881 82.1074 17.0401C82.0554 16.7921 82.0174 16.5061 82.0104 16.1901V11.6411H80.7244V10.3551H80.7084ZM75.0994 15.5965C75.1514 16.0925 75.3394 16.4385 75.6634 16.6415C75.9944 16.8365 76.3854 16.9425 76.8434 16.9425C77.0014 16.9425 77.1824 16.9275 77.3854 16.9055C77.5884 16.8825 77.7834 16.8305 77.9564 16.7615C78.1374 16.6945 78.2804 16.5885 78.4004 16.4545C78.5134 16.3185 78.5654 16.1455 78.5584 15.9275C78.5504 15.7095 78.4684 15.5295 78.3174 15.3935C78.1674 15.2515 77.9794 15.1455 77.7464 15.0545C77.5134 14.9725 77.2494 14.8975 76.9494 14.8365C76.6484 14.7775 76.3474 14.7095 76.0394 14.6415C75.7234 14.5745 75.4144 14.4835 75.1224 14.3855C74.8284 14.2885 74.5654 14.1525 74.3314 13.9795C74.0994 13.8145 73.9114 13.5965 73.7754 13.3335C73.6324 13.0705 73.5654 12.7465 73.5654 12.3555C73.5654 11.9345 73.6704 11.5885 73.8734 11.3025C74.0764 11.0165 74.3394 10.7915 74.6474 10.6185C74.9634 10.4455 75.3104 10.3255 75.6934 10.2505C76.0764 10.1825 76.4454 10.1445 76.7914 10.1445C77.1894 10.1445 77.5734 10.1895 77.9344 10.2725C78.2954 10.3555 78.6254 10.4905 78.9194 10.6865C79.2124 10.8745 79.4534 11.1225 79.6484 11.4225C79.8444 11.7235 79.9644 12.0925 80.0174 12.5205H78.2424C78.1594 12.1155 77.9794 11.8365 77.6854 11.7015C77.3934 11.5585 77.0544 11.4915 76.6784 11.4915C76.5584 11.4915 76.4144 11.4985 76.2494 11.5205C76.0844 11.5425 75.9344 11.5815 75.7834 11.6335C75.6404 11.6865 75.5204 11.7685 75.4144 11.8745C75.3174 11.9795 75.2644 12.1155 75.2644 12.2885C75.2644 12.4985 75.3394 12.6645 75.4824 12.7925C75.6254 12.9195 75.8134 13.0245 76.0464 13.1155C76.2794 13.1985 76.5424 13.2735 76.8434 13.3335C77.1444 13.3935 77.4534 13.4605 77.7684 13.5285C78.0774 13.5965 78.3774 13.6865 78.6784 13.7845C78.9794 13.8815 79.2424 14.0175 79.4764 14.1905C79.7084 14.3635 79.8964 14.5745 80.0394 14.8295C80.1824 15.0845 80.2574 15.4085 80.2574 15.7845C80.2574 16.2435 80.1524 16.6265 79.9414 16.9505C79.7314 17.2655 79.4604 17.5295 79.1294 17.7245C78.7984 17.9195 78.4224 18.0705 78.0174 18.1615C77.6104 18.2515 77.2054 18.2955 76.8064 18.2955C76.3174 18.2955 75.8664 18.2435 75.4524 18.1305C75.0394 18.0175 74.6784 17.8525 74.3774 17.6345C74.0764 17.4095 73.8354 17.1305 73.6634 16.7995C73.4904 16.4685 73.3994 16.0705 73.3844 15.6115H75.0994V15.5965ZM72.2044 18.0705H70.5344V16.9955H70.5044C70.2934 17.3865 69.9854 17.6945 69.5724 17.9275C69.1584 18.1615 68.7374 18.2815 68.3094 18.2815C67.2934 18.2815 66.5564 18.0335 66.1054 17.5295C65.6544 17.0255 65.4284 16.2655 65.4284 15.2515V10.3555H67.1284V15.0845C67.1284 15.7615 67.2554 16.2435 67.5184 16.5215C67.7744 16.7995 68.1434 16.9425 68.6094 16.9425C68.9704 16.9425 69.2634 16.8895 69.5044 16.7775C69.7454 16.6645 69.9404 16.5215 70.0834 16.3345C70.2334 16.1535 70.3394 15.9275 70.4064 15.6715C70.4744 15.4165 70.5044 15.1375 70.5044 14.8365V10.3625H72.2044V18.0705ZM59.8714 10.3555H61.4654V11.8435H61.4964C61.5484 11.6335 61.6464 11.4305 61.7894 11.2355C61.9324 11.0405 62.1044 10.8515 62.3084 10.6935C62.5114 10.5285 62.7364 10.4005 62.9844 10.2945C63.2324 10.1975 63.4884 10.1445 63.7444 10.1445C63.9394 10.1445 64.0824 10.1525 64.1574 10.1605C64.2324 10.1675 64.3084 10.1825 64.3914 10.1895V11.8295C64.2704 11.8065 64.1504 11.7925 64.0224 11.7765C63.8944 11.7615 63.7744 11.7535 63.6544 11.7535C63.3684 11.7535 63.0974 11.8145 62.8414 11.9265C62.5864 12.0405 62.3684 12.2125 62.1804 12.4305C61.9924 12.6565 61.8414 12.9265 61.7284 13.2575C61.6164 13.5885 61.5634 13.9645 61.5634 14.3935V18.0635H59.8644V10.3555H59.8714ZM51.6144 7.41504H60.2404V9.02404H56.8484V18.07H54.9834V9.02404H51.6074V7.41504H51.6144Z" fill="#191919"/>
<path fill-rule="evenodd" clip-rule="evenodd" d="M49.6295 7.415H41.8385L39.4325 0L37.0185 7.415L29.2285 7.407L35.5375 11.994L33.1235 19.401L39.4325 14.822L45.7345 19.401L43.3285 11.994L49.6295 7.415Z" fill="#00B07A"/>
<path fill-rule="evenodd" clip-rule="evenodd" d="M43.8686 13.6721L43.3276 11.9941L39.4316 14.8221L43.8686 13.6721Z" fill="#214F2C"/>
</svg>
