<svg width="74" height="70" viewBox="0 0 74 70" fill="none" xmlns="http://www.w3.org/2000/svg">
<circle cx="39" cy="35" r="35" fill="#F2F4FC"/>
<path d="M5.75684 50.4609H8.0127C9.08691 50.4609 9.88281 50.1924 10.4004 49.6553C10.918 49.1182 11.1768 48.4053 11.1768 47.5166C11.1768 46.6572 10.918 45.9883 10.4004 45.5098C9.89258 45.0312 9.18945 44.792 8.29102 44.792C7.48047 44.792 6.80176 45.0166 6.25488 45.4658C5.70801 45.9053 5.43457 46.4814 5.43457 47.1943H1.20117C1.20117 46.0811 1.49902 45.085 2.09473 44.2061C2.7002 43.3174 3.54004 42.624 4.61426 42.126C5.69824 41.6279 6.88965 41.3789 8.18848 41.3789C10.4443 41.3789 12.2119 41.9209 13.4912 43.0049C14.7705 44.0791 15.4102 45.5635 15.4102 47.458C15.4102 48.4346 15.1123 49.333 14.5166 50.1533C13.9209 50.9736 13.1396 51.6035 12.1729 52.043C13.374 52.4727 14.2676 53.1172 14.8535 53.9766C15.4492 54.8359 15.7471 55.8516 15.7471 57.0234C15.7471 58.918 15.0537 60.4365 13.667 61.5791C12.29 62.7217 10.4639 63.293 8.18848 63.293C6.05957 63.293 4.31641 62.7314 2.95898 61.6084C1.61133 60.4854 0.9375 59.001 0.9375 57.1553H5.1709C5.1709 57.9561 5.46875 58.6104 6.06445 59.1182C6.66992 59.626 7.41211 59.8799 8.29102 59.8799C9.29688 59.8799 10.083 59.6162 10.6494 59.0889C11.2256 58.5518 11.5137 57.8438 11.5137 56.9648C11.5137 54.8359 10.3418 53.7715 7.99805 53.7715H5.75684V50.4609Z" fill="#003F82"/>
<path d="M24.8545 26.5217V26C24.8545 23.2386 27.0931 21 29.8545 21H44.4644C46.6735 21 48.4644 22.7909 48.4644 25V43.0867H26.8545C25.7499 43.0867 24.8545 42.1913 24.8545 41.0867V37.565" stroke="#003F82" stroke-width="1.5"/>
<path d="M31 27L18 27" stroke="#FBAC2B" stroke-width="1.5" stroke-linecap="round"/>
<path d="M31 31L20 31" stroke="#FBAC2B" stroke-width="1.5" stroke-linecap="round"/>
<path d="M31 35L22 35" stroke="#FBAC2B" stroke-width="1.5" stroke-linecap="round"/>
<path d="M48.4648 28.9968L48.8906 29.0163C52.7375 29.1918 56.1156 31.628 57.4967 35.2227V35.2227C57.5677 35.4076 57.6042 35.604 57.6042 35.8021V41.0868C57.6042 42.1913 56.7087 43.0868 55.6042 43.0868H49.2265" stroke="#003F82" stroke-width="1.5" stroke-linecap="round"/>
<circle cx="32.0895" cy="45.7525" r="2.66563" stroke="#003F82" stroke-width="1.5"/>
<circle cx="48.8453" cy="45.7525" r="2.66563" stroke="#003F82" stroke-width="1.5"/>
<path d="M48.4648 35.4707L53.7961 35.4707" stroke="#003F82" stroke-width="1.5" stroke-linecap="round"/>
</svg>
